# xmcd
#
# Track frame offsets:
#	150
#	14632
#	27410
#	45620
#	58036
#	68318
#	80996
#	98806
#	122102
#	138093
#	150927
#	168520
#	188654
#	201139
#	213610
#
# Disc length: 3033 seconds
#
# Revision: 4
# Processed by: cddbd v1.5.2PL0 Copyright (c) Steve Scherf et al.
# Submitted via: audiograbber 1.83.01
#
DISCID=cb0bd70f
DTITLE=Marty Robbins - Artist Series Karaoke - in the style of: Marty Robbins -
DTITLE=Disc Ref No. 90066 - CD+ Graphics
DYEAR=1980
DGENRE=Country
TTITLE0=Marty Robbins - Devil Woman
TTITLE1=Marty Robbins - White Sport Coat (And a Pink Carnation)
TTITLE2=Marty Robbins - Big Iron
TTITLE3=Marty Robbins - Ribbon of Darkness
TTITLE4=Marty Robbins - Ruby Ann
TTITLE5=Marty Robbins - Street of Laredo
TTITLE6=Marty Robbins - Don't Worry
TTITLE7=Marty Robbins - El Paso
TTITLE8=Marty Robbins - I Walk Alone
TTITLE9=Marty Robbins - Singing the Blues
TTITLE10=Marty Robbins - My Woman, My Woman, My Life
TTITLE11=Marty Robbins - El Paso City
TTITLE12=Marty Robbins - The Story of My Life
TTITLE13=Marty Robbins - Begging to You
TTITLE14=Marty Robbins - Tonight Carmen
EXTD=MediaType: Karaoke CD+G Producer: Chartbuster
EXTT0=
EXTT1=
EXTT2=
EXTT3=
EXTT4=
EXTT5=
EXTT6=
EXTT7=
EXTT8=
EXTT9=
EXTT10=
EXTT11=
EXTT12=
EXTT13=
EXTT14=
PLAYORDER=
